# xmcd CD database file
#
# Track frame offsets:
#	150
#	14255
#	38816
#	53510
#	72053
#	83135
#	102085
#	118810
#	132898
#	154422
#	178625
#	193340
#
# Disc length: 2850 seconds
#
# Revision: 3
# Processed by: cddbd v1.5.1PL0 Copyright (c) Steve Scherf et al.
# Submitted via: CDex 1.50
#
DISCID=9c0b200c
DTITLE=Silje Nergaard - Port Of Call
DYEAR=2000
DGENRE=Jazz
TTITLE0=Me Oh My
TTITLE1=Bewitched, Bothered and Bewildered
TTITLE2=Do Nothing Till You Hear From Me
TTITLE3=If You Love Somebody
TTITLE4=What's New
TTITLE5=The Waltz
TTITLE6=You're Kind
TTITLE7=For All We Know
TTITLE8=Shame On You
TTITLE9=Every Time We Say Goodbye
TTITLE10=Dream A Little Dream
TTITLE11=Don't Explain
EXTD=YEAR: 2000
EXTT0=
EXTT1=
EXTT2=
EXTT3=
EXTT4=
EXTT5=
EXTT6=
EXTT7=
EXTT8=
EXTT9=
EXTT10=
EXTT11=
PLAYORDER=
